<svg xmlns="http://www.w3.org/2000/svg" viewBox="0 0 200 60" fill="none">
  <defs>
    <linearGradient id="infinityGradient" x1="0%" y1="0%" x2="0%" y2="100%">
      <stop offset="0%" stop-color="#94a3b8"/>
      <stop offset="100%" stop-color="#ffffff"/>
    </linearGradient>
  </defs>
  <!-- Infinity symbol (8) -->
  <path d="M28 30c0-8 6-14 14-14s14 6 14 14-6 14-14 14-14-6-14-14zm14 8c4.4 0 8-3.6 8-8s-3.6-8-8-8-8 3.6-8 8 3.6 8 8 8z" fill="url(#infinityGradient)"/>
  <path d="M56 30c0-8 6-14 14-14s14 6 14 14-6 14-14 14-14-6-14-14zm14 8c4.4 0 8-3.6 8-8s-3.6-8-8-8-8 3.6-8 8 3.6 8 8 8z" fill="url(#infinityGradient)"/>
  <!-- "ave" text -->
  <text x="88" y="42" font-family="system-ui, -apple-system, sans-serif" font-size="32" font-weight="500" fill="#ffffff">ave</text>
</svg>
